<svg xmlns="http://www.w3.org/2000/svg" width="540" height="200" viewBox="0 0 540 200" role="img" aria-label="ZenParticles"><defs><radialGradient id="h"><stop stop-color="#9c9aff" stop-opacity=".14"/><stop offset="1" stop-color="#9c9aff" stop-opacity="0"/></radialGradient></defs><rect width="540" height="200" rx="12" fill="#0c1322"/><circle cx="400" cy="100" r="133" fill="url(#h)"/><path d="M24 24h20 M24 24v20 M516 176h-20 M516 176v-20" fill="none" stroke="#9c9aff" stroke-opacity=".6"/><text x="33" y="58" font-family="Consolas, monospace" font-size="13" letter-spacing="2" fill="#9c9aff">PROJECT / 02</text><text x="32" y="114" font-family="Segoe UI, Arial, sans-serif" font-size="30" font-weight="600" fill="#edf5ff">ZenParticles</text><text x="34" y="152" font-family="Consolas, monospace" font-size="11" letter-spacing="1.1" fill="#8c9eb7">GESTURE / GEOMETRY</text><g fill="none" stroke="#9c9aff" stroke-width="1.5" opacity=".85"><circle cx="392.0" cy="100.0" r="2.8" fill="#9c9aff" stroke="none"/><circle cx="386.1" cy="104.5" r="1.5" fill="#9c9aff" stroke="none"/><circle cx="393.0" cy="90.7" r="1.5" fill="#9c9aff" stroke="none"/><circle cx="400.4" cy="109.1" r="2.8" fill="#9c9aff" stroke="none"/><circle cx="376.4" cy="97.7" r="1.5" fill="#9c9aff" stroke="none"/><circle cx="407.0" cy="92.1" r="1.5" fill="#9c9aff" stroke="none"/><circle cx="387.0" cy="115.6" r="2.8" fill="#9c9aff" stroke="none"/><circle cx="382.3" cy="84.5" r="1.5" fill="#9c9aff" stroke="none"/><circle cx="413.1" cy="106.4" r="1.5" fill="#9c9aff" stroke="none"/><circle cx="370.0" cy="107.5" r="2.8" fill="#9c9aff" stroke="none"/><circle cx="402.6" cy="81.1" r="1.5" fill="#9c9aff" stroke="none"/><circle cx="399.9" cy="120.9" r="1.5" fill="#9c9aff" stroke="none"/><circle cx="368.2" cy="88.6" r="2.8" fill="#9c9aff" stroke="none"/><circle cx="420.0" cy="94.9" r="1.5" fill="#9c9aff" stroke="none"/><circle cx="374.9" cy="120.2" r="1.5" fill="#9c9aff" stroke="none"/><circle cx="388.0" cy="74.7" r="2.8" fill="#9c9aff" stroke="none"/><circle cx="416.3" cy="117.0" r="1.5" fill="#9c9aff" stroke="none"/><circle cx="359.3" cy="101.1" r="1.5" fill="#9c9aff" stroke="none"/><circle cx="415.9" cy="80.3" r="2.8" fill="#9c9aff" stroke="none"/><circle cx="390.4" cy="128.7" r="1.5" fill="#9c9aff" stroke="none"/><circle cx="369.3" cy="77.4" r="1.5" fill="#9c9aff" stroke="none"/><circle cx="428.1" cy="104.0" r="2.8" fill="#9c9aff" stroke="none"/><circle cx="361.4" cy="117.7" r="1.5" fill="#9c9aff" stroke="none"/><circle cx="400.4" cy="69.2" r="1.5" fill="#9c9aff" stroke="none"/><circle cx="411.3" cy="128.0" r="2.8" fill="#9c9aff" stroke="none"/><circle cx="354.2" cy="90.0" r="1.5" fill="#9c9aff" stroke="none"/><circle cx="428.7" cy="85.9" r="1.5" fill="#9c9aff" stroke="none"/><circle cx="376.1" cy="131.6" r="2.8" fill="#9c9aff" stroke="none"/><circle cx="377.8" cy="67.2" r="1.5" fill="#9c9aff" stroke="none"/><circle cx="429.8" cy="116.5" r="1.5" fill="#9c9aff" stroke="none"/><circle cx="350.0" cy="109.2" r="2.8" fill="#9c9aff" stroke="none"/><circle cx="415.9" cy="69.1" r="1.5" fill="#9c9aff" stroke="none"/><circle cx="399.6" cy="136.7" r="1.5" fill="#9c9aff" stroke="none"/><circle cx="355.9" cy="76.8" r="2.8" fill="#9c9aff" stroke="none"/><circle cx="438.1" cy="96.8" r="1.5" fill="#9c9aff" stroke="none"/><circle cx="360.1" cy="128.6" r="1.5" fill="#9c9aff" stroke="none"/><circle cx="392.2" cy="60.5" r="2.8" fill="#9c9aff" stroke="none"/><circle cx="424.4" cy="129.7" r="1.5" fill="#9c9aff" stroke="none"/><circle cx="343.3" cy="96.3" r="1.5" fill="#9c9aff" stroke="none"/><circle cx="431.5" cy="75.1" r="2.8" fill="#9c9aff" stroke="none"/><circle cx="383.0" cy="141.0" r="1.5" fill="#9c9aff" stroke="none"/><circle cx="364.9" cy="64.3" r="1.5" fill="#9c9aff" stroke="none"/><circle cx="441.6" cy="111.3" r="2.8" fill="#9c9aff" stroke="none"/><circle cx="345.7" cy="119.7" r="1.5" fill="#9c9aff" stroke="none"/><circle cx="410.3" cy="59.0" r="1.5" fill="#9c9aff" stroke="none"/><circle cx="412.1" cy="140.9" r="2.8" fill="#9c9aff" stroke="none"/><circle cx="343.3" cy="80.9" r="1.5" fill="#9c9aff" stroke="none"/><circle cx="444.0" cy="86.7" r="1.5" fill="#9c9aff" stroke="none"/><circle cx="364.2" cy="139.4" r="2.8" fill="#9c9aff" stroke="none"/><circle cx="380.3" cy="54.9" r="1.5" fill="#9c9aff" stroke="none"/><circle cx="437.8" cy="127.0" r="1.5" fill="#9c9aff" stroke="none"/><circle cx="335.7" cy="105.8" r="2.8" fill="#9c9aff" stroke="none"/><circle cx="429.1" cy="63.8" r="1.5" fill="#9c9aff" stroke="none"/><circle cx="394.1" cy="147.9" r="1.5" fill="#9c9aff" stroke="none"/><circle cx="351.0" cy="65.5" r="2.8" fill="#9c9aff" stroke="none"/><circle cx="450.8" cy="102.5" r="1.5" fill="#9c9aff" stroke="none"/><circle cx="346.2" cy="131.4" r="1.5" fill="#9c9aff" stroke="none"/><circle cx="400.3" cy="50.7" r="2.8" fill="#9c9aff" stroke="none"/><circle cx="426.3" cy="141.3" r="1.5" fill="#9c9aff" stroke="none"/><circle cx="332.6" cy="88.7" r="1.5" fill="#9c9aff" stroke="none"/><circle cx="445.5" cy="74.8" r="2.8" fill="#9c9aff" stroke="none"/><circle cx="372.9" cy="149.0" r="1.5" fill="#9c9aff" stroke="none"/><circle cx="366.0" cy="52.8" r="1.5" fill="#9c9aff" stroke="none"/><circle cx="450.0" cy="120.4" r="2.8" fill="#9c9aff" stroke="none"/><circle cx="332.1" cy="117.6" r="1.5" fill="#9c9aff" stroke="none"/></g></svg>